<?xml version="1.0" encoding="UTF-8" standalone="no"?>
<!-- Created with Inkscape (http://www.inkscape.org/) -->

<svg
   xmlns:dc="http://purl.org/dc/elements/1.1/"
   xmlns:cc="http://creativecommons.org/ns#"
   xmlns:rdf="http://www.w3.org/1999/02/22-rdf-syntax-ns#"
   xmlns:svg="http://www.w3.org/2000/svg"
   xmlns="http://www.w3.org/2000/svg"
   xmlns:sodipodi="http://sodipodi.sourceforge.net/DTD/sodipodi-0.dtd"
   xmlns:inkscape="http://www.inkscape.org/namespaces/inkscape"
   width="170.34102mm"
   height="197.55556mm"
   viewBox="0 0 603.57054 700"
   id="svg15469"
   version="1.1"
   inkscape:version="0.91 r13725"
   sodipodi:docname="bioshazard-stripe.svg"
   inkscape:export-filename="/home/hudson/Downloads/bioshazard-stripe.svg.png"
   inkscape:export-xdpi="600.04285"
   inkscape:export-ydpi="600.04285">
  <defs
     id="defs15471" />
  <sodipodi:namedview
     id="base"
     pagecolor="#ffffff"
     bordercolor="#666666"
     borderopacity="1.0"
     inkscape:pageopacity="0.0"
     inkscape:pageshadow="2"
     inkscape:zoom="1.1735503"
     inkscape:cx="-59.075488"
     inkscape:cy="396.51529"
     inkscape:document-units="px"
     inkscape:current-layer="layer1"
     showgrid="false"
     fit-margin-top="0"
     fit-margin-left="0"
     fit-margin-right="0"
     fit-margin-bottom="0"
     inkscape:window-width="2560"
     inkscape:window-height="1416"
     inkscape:window-x="0"
     inkscape:window-y="24"
     inkscape:window-maximized="1"
     showborder="false" />
  <metadata
     id="metadata15474">
    <rdf:RDF>
      <cc:Work
         rdf:about="">
        <dc:format>image/svg+xml</dc:format>
        <dc:type
           rdf:resource="http://purl.org/dc/dcmitype/StillImage" />
        <dc:title />
      </cc:Work>
    </rdf:RDF>
  </metadata>
  <g
     inkscape:label="Layer 1"
     inkscape:groupmode="layer"
     id="layer1"
     transform="translate(-211.70308,-214.17525)">
    <path
       inkscape:connector-curvature="0"
       id="path16060"
       d="m 211.70308,614.17524 0,-399.99999 314.83546,0 288.7351,0 0,399.99999 0,300.00001 -288.7351,0 -314.83546,0 z"
       style="fill:#f5d117"
       sodipodi:nodetypes="ccccccccc" />
    <path
       style="fill:#d33013"
       d="m 238.07399,888.95222 c -0.36667,-0.36666 -0.66667,-5.85892 -0.66667,-12.205 l 0,-11.53834 22.49394,-22.545 22.49395,-22.54499 0.006,12.25 0.006,12.25 5.24167,0 5.24166,0 -22.48333,22.5 -22.48333,22.5 -4.59167,0 c -2.52542,0 -4.89167,-0.3 -5.25833,-0.66667 z"
       id="path16386"
       inkscape:connector-curvature="0" />
    <path
       style="fill:#d33013"
       d="m 305.40732,867.11889 22.48333,-22.5 17.50834,0.006 17.50833,0.006 -22.54499,22.49395 -22.545,22.49405 -17.44667,0 -17.44667,0 z"
       id="path16384"
       inkscape:connector-curvature="0" />
    <path
       style="fill:#d33013"
       d="m 353.40732,888.86037 c 0,-0.41719 9.22931,-11.13233 21.75834,-22.5 l 21.75833,-21.74148 17.49167,0.006 17.49166,0.006 -22.54499,22.49395 -22.545,22.49394 -16.705,0 c -9.18776,1.1e-4 -16.70501,-0.34123 -16.70501,-0.75841 z"
       id="path16382"
       inkscape:connector-curvature="0" />
    <path
       style="fill:#d33013"
       d="m 422.40732,888.86037 c 0,-0.41719 9.79126,-10.54218 21.75834,-22.5 l 21.75833,-21.74148 17.48333,0 17.48333,0 -22.48333,22.5 -22.48333,22.5 -16.75834,0 c -9.21708,0 -16.75833,-0.34134 -16.75833,-0.75852 z"
       id="path16380"
       inkscape:connector-curvature="0" />
    <path
       style="fill:#d33013"
       d="m 491.40732,888.86037 c 0,-0.41719 9.79126,-10.54218 21.75834,-22.5 l 21.75833,-21.74148 17.48333,0 17.48333,0 -22.48333,22.5 -22.48333,22.5 -16.75834,0 c -9.21708,0 -16.75833,-0.34134 -16.75833,-0.75852 z"
       id="path16378"
       inkscape:connector-curvature="0" />
    <path
       style="fill:#d33013"
       d="m 582.40732,867.11889 22.48333,-22.5 17.50834,0.006 17.50833,0.006 -22.54499,22.49395 -22.545,22.49394 -17.44667,0 -17.44667,0 z"
       id="path16376"
       inkscape:connector-curvature="0" />
    <path
       style="fill:#d33013"
       d="m 692.40732,888.86037 c 0,-0.41719 9.79126,-10.54218 21.75834,-22.5 l 21.75833,-21.74148 7.74167,0 7.74166,0 0,-7.75833 0,-7.75834 22.5,-22.48333 22.5,-22.48333 0,17.47593 0,17.47593 -35.26573,35.26574 -35.26574,35.26573 -16.73426,0 c -9.20385,0 -16.73427,-0.34134 -16.73427,-0.75852 z"
       id="path16374"
       inkscape:connector-curvature="0" />
    <path
       style="fill:#d33013"
       d="m 761.40732,888.85737 c 0,-0.97941 33.2802,-34.23848 34.26072,-34.23848 0.4066,0 0.73928,7.60186 0.73928,16.89301 0,14.48173 -0.22578,16.97965 -1.58179,17.5 -2.31157,0.88703 -33.41821,0.74365 -33.41821,-0.15404 z"
       id="path16372"
       inkscape:connector-curvature="0" />
    <path
       style="fill:#d33013"
       d="m 237.40732,814.60216 0,-17.5 22.5,-22.48333 22.5,-22.48334 0,17.5 0,17.5 -22.5,22.48334 -22.5,22.48333 z"
       id="path16334"
       inkscape:connector-curvature="0" />
    <path
       style="fill:#d33013"
       d="m 751.40732,777.60197 0,-17.50019 21.75834,-21.74147 c 11.96708,-11.95782 22.09208,-21.74148 22.5,-21.74148 0.40791,0 0.74166,7.54124 0.74166,16.75833 l 0,16.75833 -22.5,22.48334 -22.5,22.48333 z"
       id="path16332"
       inkscape:connector-curvature="0" />
    <path
       style="fill:#d33013"
       d="m 237.40732,744.8605 0,-16.75834 22.5,-22.48333 22.5,-22.48333 0,17.50019 0,17.50019 -21.75834,21.74147 c -11.96708,11.95782 -22.09208,21.74148 -22.5,21.74148 -0.40791,0 -0.74166,-7.54125 -0.74166,-16.75833 z"
       id="path16330"
       inkscape:connector-curvature="0" />
    <path
       style="fill:#d33013"
       d="m 751.40732,708.60197 0,-17.50019 21.75834,-21.74147 c 11.96708,-11.95782 22.09208,-21.74148 22.5,-21.74148 0.40791,0 0.74166,7.54125 0.74166,16.75833 l 0,16.75834 -22.5,22.48333 -22.5,22.48333 z"
       id="path16328"
       inkscape:connector-curvature="0" />
    <path
       style="fill:#d33013"
       d="m 237.40732,675.65549 0,-17.44667 22.49394,-22.545 22.49395,-22.54499 0.006,17.50833 0.006,17.50834 -22.5,22.48333 -22.5,22.48333 0,-17.44667 z"
       id="path16326"
       inkscape:connector-curvature="0" />
    <path
       style="fill:#d33013"
       d="m 751.41338,639.6105 -0.006,-17.50834 22.5,-22.48333 22.5,-22.48333 0,17.44667 0,17.44667 -22.49394,22.545 -22.49395,22.54499 -0.006,-17.50833 z"
       id="path16324"
       inkscape:connector-curvature="0" />
    <path
       style="fill:#d33013"
       d="m 237.40732,606.60216 0,-17.5 22.5,-22.48333 22.5,-22.48333 0,17.5 0,17.5 -22.5,22.48333 -22.5,22.48333 z"
       id="path16322"
       inkscape:connector-curvature="0" />
    <path
       style="fill:#d33013"
       d="m 751.46023,570.6105 -0.0529,-17.50834 22.5,-22.48333 22.5,-22.48333 0,17.02083 0,17.02084 -22.44709,22.97083 -22.44708,22.97083 -0.0529,-17.50833 z"
       id="path16320"
       inkscape:connector-curvature="0" />
    <path
       style="fill:#d33013"
       d="m 237.40732,536.8605 0,-16.75834 22.5,-22.48333 22.5,-22.48333 0,17.50019 0,17.50019 -21.75834,21.74147 c -11.96708,11.95782 -22.09208,21.74148 -22.5,21.74148 -0.40791,0 -0.74166,-7.54125 -0.74166,-16.75833 z"
       id="path16318"
       inkscape:connector-curvature="0" />
    <path
       style="fill:#d33013"
       d="m 751.40732,500.60197 0,-17.50019 21.75834,-21.74147 c 11.96708,-11.95782 22.09208,-21.74148 22.5,-21.74148 0.40791,0 0.74166,7.54125 0.74166,16.75833 l 0,16.75834 -22.5,22.48333 -22.5,22.48333 z"
       id="path16316"
       inkscape:connector-curvature="0" />
    <path
       style="fill:#d33013"
       d="m 237.40732,467.8605 0,-16.75834 22.5,-22.48333 22.5,-22.48333 0,17.50019 0,17.50019 -21.75834,21.74147 c -11.96708,11.95782 -22.09208,21.74148 -22.5,21.74148 -0.40791,0 -0.74166,-7.54125 -0.74166,-16.75833 z"
       id="path16314"
       inkscape:connector-curvature="0" />
    <path
       style="fill:#d33013"
       d="m 751.41338,431.6105 -0.006,-17.50834 22.5,-22.48333 22.5,-22.48333 0,17.44667 0,17.44667 -22.49394,22.545 -22.49395,22.54499 -0.006,-17.50833 z"
       id="path16312"
       inkscape:connector-curvature="0" />
    <path
       style="fill:#d33013"
       d="m 237.40732,398.65549 0,-17.44667 22.49394,-22.545 22.49395,-22.54499 0.006,17.50833 0.006,17.50834 -22.5,22.48333 -22.5,22.48333 0,-17.44667 z"
       id="path16310"
       inkscape:connector-curvature="0" />
    <path
       style="fill:#d33013"
       d="m 289.40732,350.11883 0,-56.5 227.17614,0 227.17615,0 0,56.5 0,56.5 -227.17615,0 -227.17614,0 z"
       id="path16308"
       inkscape:connector-curvature="0" />
    <path
       style="fill:#d33013"
       d="m 751.41338,362.6105 -0.006,-17.50834 22.5,-22.48333 22.5,-22.48334 0,17.44667 0,17.44667 -22.49394,22.545 -22.49395,22.54499 -0.006,-17.50833 z"
       id="path16306"
       inkscape:connector-curvature="0" />
    <path
       style="fill:#d33013"
       d="m 237.40732,329.60521 0,-17.49694 35.25521,-35.24472 35.25521,-35.24472 17.48645,0 17.48646,0 -22.48333,22.5 -22.48333,22.5 -7.75834,0 -7.75833,0 0,7.75833 0,7.75833 -22.5,22.48334 -22.5,22.48333 z"
       id="path16304"
       inkscape:connector-curvature="0" />
    <path
       style="fill:#d33013"
       d="m 751.40732,298.3605 0,-11.74167 -5.75,-0.006 -5.75,-0.006 22.60253,-22.55132 22.60253,-22.55132 5.39747,0.30738 5.39747,0.30746 0.2725,11.5 0.2725,11.5 -22.5225,22.49167 -22.5225,22.49166 0,-11.74166 z"
       id="path16302"
       inkscape:connector-curvature="0" />
    <path
       style="fill:#d33013"
       d="m 354.45231,264.11277 22.545,-22.49394 17.44667,0 17.44667,0 -22.48333,22.5 -22.48333,22.5 -17.50834,-0.006 -17.50833,-0.006 22.54499,-22.49395 z"
       id="path16300"
       inkscape:connector-curvature="0" />
    <path
       style="fill:#d33013"
       d="m 423.45231,264.11277 22.545,-22.49394 17.44667,0 17.44667,0 -22.48333,22.5 -22.48333,22.5 -17.50834,-0.006 -17.50833,-0.006 22.54499,-22.49395 z"
       id="path16298"
       inkscape:connector-curvature="0" />
    <path
       style="fill:#d33013"
       d="m 493.40732,264.11877 22.48333,-22.5 16.75834,0 c 9.21708,0 16.75833,0.34134 16.75833,0.75852 0,0.41719 -9.79125,10.54219 -21.75834,22.5 l -21.75833,21.74148 -17.48333,0 -17.48333,0 z"
       id="path16296"
       inkscape:connector-curvature="0" />
    <path
       style="fill:#d33013"
       d="m 562.40732,264.11877 22.48333,-22.5 16.75834,0 c 9.21708,0 16.75833,0.34134 16.75833,0.75852 0,0.41719 -9.79125,10.54219 -21.75834,22.5 l -21.75833,21.74148 -17.48333,0 -17.48333,0 z"
       id="path16294"
       inkscape:connector-curvature="0" />
    <path
       style="fill:#d33013"
       d="m 631.45231,264.11277 22.545,-22.4939 17.44667,0 17.44667,0 -22.48333,22.5 -22.48333,22.5 -17.50834,-0.006 -17.50833,-0.006 22.54499,-22.49395 z"
       id="path16292"
       inkscape:connector-curvature="0" />
    <path
       style="fill:#d33013"
       d="m 237.63371,259.36887 0.27361,-17.25 17.25,-0.27361 c 9.4875,-0.15049 17.25,0.0795 17.25,0.51103 0,1.01072 -33.27297,34.26258 -34.28433,34.26258 -0.4196,0 -0.63977,-7.7625 -0.48928,-17.25 z"
       id="path16058"
       inkscape:connector-curvature="0" />
    <path
       inkscape:connector-curvature="0"
       id="path16056"
       d="m 583.50395,768.51075 c -23.17896,-2.48978 -47.49118,-14.42052 -62.85353,-30.84412 l -4.79575,-5.12704 -7.18159,6.65675 c -16.54422,15.33514 -34.98713,24.47298 -56.56901,28.02802 -24.67196,4.06405 -52.85815,-2.26662 -74.23141,-16.67251 -7.33297,-4.94253 -21.88117,-18.65559 -21.88117,-20.62508 0,-2.36703 1.81329,-1.43608 9.86586,5.06511 9.58306,7.73684 19.78755,12.90529 31.04985,15.7264 7.00409,1.75446 10.52654,2.03549 21,1.67542 10.78689,-0.37084 13.83565,-0.87043 21.3455,-3.49781 11.69308,-4.09092 18.5766,-8.32246 27.9215,-17.16431 16.90052,-15.99078 24.70585,-19.55406 23.57385,-43.08556 -0.38985,-8.10408 -1.20419,-12.6236 -3.51709,-19.51958 -3.38848,-10.10288 -4.83628,-12.26295 5.11421,-13.90198 l 5.31652,-2.87573 4.21554,3.05372 c 4.90504,3.55319 12.54991,5.47151 18.20272,4.56759 2.18291,-0.34906 6.49598,-2.15637 9.58461,-4.01624 l 5.61567,-3.38158 5.60563,3.13727 c 3.0831,1.7255 5.7524,3.26607 5.93179,3.42348 0.17939,0.15741 -1.12235,4.48943 -2.89275,9.6267 -2.68691,7.79677 -3.29396,11.24116 -3.67301,20.84051 -0.66408,16.81795 2.48619,13.4828 10.88499,27.7602 4.3128,7.33149 17.76292,20.78161 25.09441,25.09441 29.69764,17.46988 65.64253,14.06199 90.75765,-8.60461 3.19941,-2.8875 6.30884,-5.25 6.90983,-5.25 4.2659,0 -4.34016,10.16298 -16.12722,19.04479 -21.3933,16.12034 -48.23621,23.66197 -74.2676,20.86578 z M 463.62483,709.60608 c -30.51982,-17.83475 -49.75642,-49.0838 -52.21813,-84.82616 -0.37743,-5.48005 -0.37596,-11.2 0.003,-12.71101 l 0.68952,-2.74727 7.80318,0.65076 c 4.29175,0.35791 10.04939,1.31781 12.79477,2.1331 l 4.99158,1.48234 0.62618,9.25617 c 1.78266,26.35115 15.52427,49.22092 37.817,62.93777 l 4.6571,2.86555 -1.47721,5.65688 c -1.2246,4.69056 -7.73335,19.29597 -8.59877,19.29597 -0.13932,0 -3.32901,-1.79734 -7.08822,-3.9941 z m 94.94411,1.7441 c -2.76554,-4.23683 -6.57818,-13.43058 -7.405,-17.8563 l -0.82657,-4.42442 6.07706,-3.48464 c 7.73665,-4.43627 21.05135,-17.64126 25.93667,-25.72297 7.36121,-12.17752 11.64039,-26.71733 11.64039,-39.55173 l 0,-6.37438 3.75,-1.21614 c 2.0625,-0.66888 8.20596,-1.48859 13.65213,-1.82158 l 9.90213,-0.60543 -0.57717,12.40379 c -1.50757,32.39913 -16.40143,60.99181 -41.63379,79.92707 -5.88951,4.41969 -16.91687,10.97673 -18.46022,10.97673 -0.32284,0 -1.24787,-1.0125 -2.05563,-2.25 z m 130.85711,-10.05995 c -0.35142,-0.91576 -0.0945,-3.13316 0.57087,-4.92754 0.66539,-1.79438 1.44264,-8.90416 1.72722,-15.79952 0.43758,-10.60248 0.19108,-13.84289 -1.5975,-21 -13.57325,-54.31412 -59.37822,-91.26882 -104.25731,-57.53259 -3.40436,2.5591 -8.10053,6.99749 -10.43593,9.86308 -2.3354,2.86559 -4.57941,5.60478 -4.98669,6.08709 -0.40729,0.48231 -3.65151,-0.75099 -7.20939,-2.74067 l -6.46887,-3.6176 0.90044,-4.00754 c 2.31438,-10.30051 -5.17804,-23.37545 -15.54266,-27.12335 l -3.56618,-1.28955 0,-7.66191 0,-7.66191 7.25,-1.17144 c 9.11257,-1.47239 21.45313,-6.42864 29.25,-11.74748 7.50519,-5.11985 5.63244,-3.03152 10.06204,-10.50528 1.8509,-3.12289 3.44557,-8.29021 4.9278,-13.59263 2.39848,-8.58019 1.4416,-9.42086 1.4416,-24.26121 0,-14.84035 -0.13341,-15.87286 -3.13474,-24.26121 -4.22332,-11.8037 -8.44696,-18.63484 -17.31817,-28.00974 -8.99066,-9.50112 -19.80438,-16.43801 -31.61264,-20.27918 -4.7877,-1.55742 -8.32676,-3.24096 -8.10771,-3.85687 0.9924,-2.79023 17.24466,1.21749 30.17326,7.44056 30.57473,14.71688 52.57693,44.88478 57.55234,78.9118 2.13289,14.58697 0.69582,29.17417 -4.74109,48.12487 -0.35126,1.22436 1.35781,2.05422 7.75918,3.76753 56.04625,15.00064 89.36936,75.27281 72.24018,130.66224 -1.89316,6.12178 -3.91656,8.69045 -4.87605,6.19005 z m -351.53197,-2.44005 c -2.30036,-6.03676 -4.9204,-19.23695 -5.53318,-27.87701 -1.26142,-17.78564 3.71698,-40.65699 12.27068,-56.37299 13.39221,-24.60596 36.61897,-42.96747 63.35991,-50.08807 4.675,-1.24487 8.65712,-2.37894 8.84916,-2.52016 0.19205,-0.14122 -0.64783,-4.44964 -1.86638,-9.57427 -12.76986,-53.7038 16.80741,-106.90762 69.01722,-124.14869 4.125,-1.36218 9.45448,-2.79157 11.84329,-3.17641 3.71077,-0.59782 4.29329,-0.4612 4,0.9381 -0.21866,1.04321 -3.32347,2.66765 -8.55206,4.47445 -11.43971,3.95313 -21.62265,10.61264 -30.38101,19.86879 -8.82938,9.3312 -13.05688,16.17455 -17.27548,27.96505 -3.00133,8.38835 -3.13474,9.42086 -3.13474,24.26121 0,14.84035 0.81898,15.65832 3.13474,24.26121 3.54574,13.17217 2.23438,10.93631 3.92485,15.97949 5.58147,16.65116 26.79351,20.82223 43.16029,23.36672 l 7.33971,1.14108 -0.004,7.57071 -0.004,7.57071 -4.38095,1.80137 c -9.74684,4.00773 -15.08701,12.34679 -15.15915,23.67215 l -0.0476,7.47353 -6.4524,3.76325 -6.4524,3.76324 -1.43151,-2.23677 C 461.055,615.9384 447.25071,603.17935 441.5012,599.82114 428.00453,591.93789 416.98911,588.9901 401.02738,588.9901 c -34.34844,0 -51.51194,35.29238 -60.03664,69.02004 -2.41971,9.57348 -2.66574,26.20038 -0.51925,35.09004 0.79682,3.3 1.46479,6.5625 1.48438,7.25 0.0678,2.37865 -3.01805,1.23907 -4.06179,-1.5 z m 129.93635,-150 c -2.52223,-2.6125 -6.21963,-7.22169 -8.21645,-10.24265 l -3.63057,-5.49265 2.25404,-1.71969 c 1.23972,-0.94583 6.30404,-3.7337 11.25404,-6.19527 23.61396,-11.7429 50.22977,-14.20899 75.37621,-6.984 8.62833,2.47907 24.6354,9.74647 28.87663,13.11034 l 2.25284,1.78681 -4.397,6.49355 c -2.41835,3.57146 -6.16462,8.19427 -8.32506,10.27291 l -3.92806,3.77935 -7.92778,-4.01376 c -11.87468,-6.01203 -21.61686,-8.28293 -35.42778,-8.25822 -13.89131,0.0249 -23.46965,2.27534 -34.82253,8.18176 -4.262,2.21734 -7.97489,4.03152 -8.25087,4.03152 -0.27598,0 -2.56543,-2.1375 -5.08766,-4.75 z"
       style="fill:#040403"
       sodipodi:nodetypes="sscsssssssssssscssscssssssssssssccsscssccsssscssscsscsssssssssssscsscccsssssssscsssssssssscssssssssssscccssccccsssssssscsssscsscsssss" />
    <g
       id="g13970"
       transform="matrix(1.036877,0,0,1.036877,439.48331,69.059231)">
      <g
         id="g14008"
         transform="matrix(1.4280936,0,0,1.4280936,38.100334,491.54163)">
        <rect
           ry="4.6816931"
           rx="4.6922488"
           y="15.966584"
           x="15.171801"
           height="21.400648"
           width="22.251802"
           id="rect14006"
           style="opacity:1;fill:#cccccc;fill-opacity:1;stroke:none;stroke-width:3.53600001;stroke-linecap:butt;stroke-linejoin:miter;stroke-miterlimit:4;stroke-dasharray:none;stroke-opacity:1" />
        <path
           sodipodi:nodetypes="ccccccccccccccccccccccccccccccccccccccccsssssssss"
           inkscape:connector-curvature="0"
           d="m 49,19.5 0,-2 -6.998413,0 0,-7.495789 -27.599976,0 -4.400024,4.53003 0,27.46997 7.498413,0 0,6.995789 2,0 0,-6.995789 3,0 0,6.995789 2,0 0,-6.995789 3,0 0,6.995789 2,0 0,-6.995789 3,0 0,6.995789 2,0 0,-6.995789 2.811585,0 4.658021,-0.144781 0.03198,-5.495233 0,-1.864197 6.998413,0 0,-2 -6.998413,0 0,-3 6.998413,0 0,-2 -6.998413,0 0,-3 6.998413,0 0,-2 -6.998413,0 0,-3 z M 36.001587,33.504211 c 0,1.650025 -1.349976,3 -3,3 l -14,0 c -1.659973,0 -3,-1.349975 -3,-3 l 0,-14 c 0,-1.659973 1.340027,-3 3,-3 l 14,0 c 1.650024,0 3,1.340027 3,3 z"
           id="path13972" />
        <rect
           height="2"
           width="7"
           x="3"
           y="17.5"
           id="rect13974" />
        <rect
           height="2"
           width="7"
           x="3"
           y="22.5"
           id="rect13976" />
        <rect
           height="2"
           width="7"
           x="3"
           y="27.5"
           id="rect13978" />
        <rect
           height="2"
           width="7"
           x="3"
           y="32.5"
           id="rect13980" />
        <rect
           height="7"
           width="2"
           x="32.5"
           y="3"
           id="rect13982" />
        <rect
           height="7"
           width="2"
           x="27.5"
           y="3"
           id="rect13984" />
        <rect
           height="7"
           width="2"
           x="22.5"
           y="3"
           id="rect13986" />
        <rect
           height="7"
           width="2"
           x="17.5"
           y="3"
           id="rect13988" />
      </g>
    </g>
    <text
       id="use14047"
       x="406.83646"
       y="246.34621"
       font-size="93"
       font-weight="700"
       font-style="normal"
       letter-spacing="0"
       alignment-baseline="before-edge"
       style="font-style:normal;font-weight:700;font-size:86.23825073px;line-height:100%;font-family:'Open Sans';letter-spacing:0;fill:#f5d117;fill-opacity:1"
       xml:space="preserve"
       dominant-baseline="text-before-edge"
       sodipodi:linespacing="100%"
       transform="scale(0.72082851,1.3872925)"><tspan
         dx="0 -5.0722938 -4.3304601 -4.2813339 2.9759145 -2.8874111 0 0 -2.5776505 -5.7677636"
         x="406.83646"
         dy="37.509007"
         alignment-baseline="before-edge"
         dominant-baseline="text-before-edge"
         id="tspan14792"
         style="text-anchor:start;fill:#f5d117;fill-opacity:1">BIOSHAZARD</tspan></text>
    <path
       id="path16390"
       d="m 650.40732,867.11889 22.48333,-22.5 17.50834,0.006 17.50833,0.006 -22.54499,22.49395 -22.545,22.49394 -17.44667,0 -17.44667,0 z"
       style="fill:#d33013"
       inkscape:connector-curvature="0" />
    <path
       id="path16392"
       d="m 699.45231,264.11277 22.545,-22.4939 17.44667,0 17.44667,0 -22.48333,22.5 -22.48333,22.5 -17.50834,-0.006 -17.50833,-0.006 22.54499,-22.49395 z"
       style="fill:#d33013"
       inkscape:connector-curvature="0" />
    <text
       transform="scale(0.88587275,1.1288303)"
       sodipodi:linespacing="100%"
       dominant-baseline="text-before-edge"
       xml:space="preserve"
       style="font-style:normal;font-weight:700;font-size:57.94244766px;line-height:100%;font-family:'Open Sans';letter-spacing:0;fill:#d33013;fill-opacity:1"
       alignment-baseline="before-edge"
       letter-spacing="0"
       font-style="normal"
       font-weight="700"
       font-size="93"
       y="738.93268"
       x="351.51645"
       id="text16416"><tspan
         style="font-style:normal;font-variant:normal;font-weight:normal;font-stretch:normal;font-family:'DIN 1451 Mittelschrift DB';-inkscape-font-specification:'DIN 1451 Mittelschrift DB';text-anchor:start;fill:#d33013;fill-opacity:1"
         id="tspan16418"
         dominant-baseline="text-before-edge"
         alignment-baseline="before-edge"
         x="351.51645">INFECTED SYSTEM</tspan></text>
  </g>
</svg>
