<svg id="Ebene_1" data-name="Ebene 1" xmlns="http://www.w3.org/2000/svg" viewBox="0 0 1500 1124"><defs><style>.cls-1{fill:#1d1d1b;}.cls-2{fill:#8dcaf0;}.cls-3{fill:#266bb2;}.cls-4{fill:#0e0f0e;}</style></defs><title>oreboot_logo</title><path class="cls-1" d="M209.55,869.77c56.14,0,93.25,29.33,93.25,74,0,44.91-37.11,74-93.25,74-56.37,0-93.26-29.1-93.26-74C116.29,899.1,153.18,869.77,209.55,869.77Zm-.23,115.94c32.54,0,54.76-17,54.76-41.93s-22.22-41.93-54.76-41.93S155,918.57,155,943.78,176.78,985.71,209.32,985.71Z"/><path class="cls-1" d="M444.63,931.63c11.92,0,17.41-4.35,17.41-12.6,0-8.48-5.72-12.37-17.64-12.37h-52a4.33,4.33,0,0,0-4.59,4.58v94.4c0,4.82-3.2,8-8,8H357.1c-4.81,0-8-3.2-8-8V881.91a7.58,7.58,0,0,1,8-8h82c39.41,0,60.95,15.35,60.95,43.76,0,22-12.6,36.9-34.83,42.4l37.35,47.43a5.65,5.65,0,0,1,1.61,3.43c0,1.84-1.61,2.75-4.59,2.75H465.25a9.21,9.21,0,0,1-7.33-3.66l-34.6-45.37H405.45c-3.67,0-5.5-1.61-5.5-4.36a7.85,7.85,0,0,1,.69-3l9.16-21.54a7.07,7.07,0,0,1,6.42-4.13Z"/><path class="cls-1" d="M669.17,873.89c4.82,0,8,3.21,8,8v17c0,4.81-3.21,8-8,8H591.5a4.32,4.32,0,0,0-4.58,4.58V922.7a4.32,4.32,0,0,0,4.58,4.58h71.72c3.66,0,5.73,1.83,5.73,4.35a7.85,7.85,0,0,1-.69,3l-8.48,20.62a7,7,0,0,1-6.41,4.13H591.5a4.32,4.32,0,0,0-4.58,4.58v12.15a4.32,4.32,0,0,0,4.58,4.58h85.24a7.58,7.58,0,0,1,8,8v16.95c0,4.82-3.21,8-8,8H556.9c-4.81,0-8-3.2-8-8V881.91a7.58,7.58,0,0,1,8-8Z"/><path class="cls-1" d="M819,873.89c27.72,0,46.74,14.66,46.74,36.2,0,13.3-7.11,25.21-17.65,29.79v.92c14.44,6,23.15,18.79,23.15,34.37,0,23.6-19.94,38.49-51.79,38.49H738.83a5.41,5.41,0,0,1-5.73-5.72V879.62a5.41,5.41,0,0,1,5.73-5.73ZM751,995.79a2.17,2.17,0,0,0,2.29,2.29h68.06c19.93,0,32.07-9.39,32.07-24.74S841,948.59,820.63,948.59H768.39c-2.52,0-3.9-1.15-3.9-3a4.5,4.5,0,0,1,.46-2.29l3.21-7.79a3.58,3.58,0,0,1,3.2-2.06h49c17,0,27.5-8.48,27.5-22s-10.55-21.77-28-21.77H753.26A2.17,2.17,0,0,0,751,892Z"/><path class="cls-1" d="M978.76,887.05l49.16,28.39v56.77l-49.16,28.39-49.17-28.39V915.44l49.17-28.39m0-15.75a15.73,15.73,0,0,0-7.88,2.11l-49.17,28.38a15.77,15.77,0,0,0-7.87,13.65v56.77a15.74,15.74,0,0,0,7.87,13.64l49.17,28.39a15.75,15.75,0,0,0,15.75,0l49.17-28.39a15.75,15.75,0,0,0,7.88-13.64V915.44a15.78,15.78,0,0,0-7.88-13.65l-49.17-28.38a15.67,15.67,0,0,0-7.87-2.11Z"/><path class="cls-1" d="M1151.92,887.05l49.17,28.39v56.77l-49.17,28.39-49.17-28.39V915.44l49.17-28.39m0-15.75a15.73,15.73,0,0,0-7.88,2.11l-49.16,28.38a15.76,15.76,0,0,0-7.88,13.65v56.77a15.73,15.73,0,0,0,7.88,13.64l49.16,28.39a15.77,15.77,0,0,0,15.76,0L1209,985.85a15.73,15.73,0,0,0,7.88-13.64V915.44a15.76,15.76,0,0,0-7.88-13.65l-49.16-28.38a15.73,15.73,0,0,0-7.88-2.11Z"/><path class="cls-1" d="M1378,873.89a5.41,5.41,0,0,1,5.73,5.73V884a5.41,5.41,0,0,1-5.73,5.73h-51.32a2.16,2.16,0,0,0-2.29,2.29v115.94a5.42,5.42,0,0,1-5.73,5.73h-6.42a5.41,5.41,0,0,1-5.73-5.73V892a2.16,2.16,0,0,0-2.29-2.29h-51.55a5.41,5.41,0,0,1-5.73-5.73v-4.35a5.41,5.41,0,0,1,5.73-5.73Z"/><g id="ore"><polygon class="cls-2" points="987.36 556.49 987.36 267.76 737.32 123.4 487.27 267.76 487.27 556.49 737.32 700.86 987.36 556.49"/><polygon class="cls-3" points="737.32 123.4 538.94 585.65 733.2 691.99 666.05 315.27 835.27 412.06 977.89 267.69 737.32 123.4"/><path class="cls-4" d="M1006.31,270.59l-1.76-1.74v-1.09A17.19,17.19,0,0,0,996,252.88L745.91,108.52a17.19,17.19,0,0,0-17.19,0l-250,144.36a17.18,17.18,0,0,0-8.6,14.88V556.49a17.18,17.18,0,0,0,8.6,14.88l250,144.37a17.21,17.21,0,0,0,17.19,0L996,571.37a17.19,17.19,0,0,0,8.59-14.88V272.37ZM655.1,364.93l59.37,302.9L564.73,581.37Zm90.55-216.88L958,270.63,836.34,393.73,679.57,306.32ZM504.45,277.68l197.41-114L643.63,303.18l-.62.12.19.93L534.72,564.05l-30.27-17.48ZM970.18,546.57,750.58,673.36,687.17,349.91,831,430.11a17.16,17.16,0,0,0,20.59-2.93l118.57-120Z"/></g></svg>